<svg width="130" height="41" viewBox="0 0 130 41" fill="none" xmlns="http://www.w3.org/2000/svg">
<path d="M110.33 28.2004L110.158 28.3285L110.25 28.2004H110.33Z" fill="black"/>
<path d="M110.218 28.3724H110.19L110.158 28.3284L110.218 28.3724Z" fill="black"/>
<path d="M129.6 20.0378H125.028V36.847H129.6V20.0378Z" fill="white"/>
<path d="M129.6 14.5083H125.028V17.7773H129.6V14.5083Z" fill="white"/>
<path d="M45.1235 36.8471V20.0979H57.6405C57.9247 20.1259 58.9814 20.266 59.854 21.1662C60.6786 22.0185 60.8107 23.0068 60.8427 23.3029V29.0847H55.6751V24.5913H50.2632V36.8431H45.1315L45.1235 36.8471Z" fill="white"/>
<path d="M122.487 20.0378H117.291L112.043 27.128H110.094L104.846 20.0378H99.6504L105.871 28.4444L99.6504 36.851H104.846L110.162 29.6728H111.975L117.291 36.851H122.487L116.266 28.4444L122.487 20.0378ZM111.127 28.4844H111.103L111.071 28.4404L110.978 28.3124H111.243L111.075 28.4404L111.135 28.4844H111.127Z" fill="white"/>
<path d="M27.5508 22.5266V18.0532H42.5775V22.5266H27.5508ZM31.8739 36.847V16.0286C31.8739 14.5482 32.2061 13.2277 32.8666 12.0594C33.527 10.891 34.4557 9.97075 35.6486 9.29454C36.8414 8.61833 38.2424 8.28223 39.8516 8.28223C41.0724 8.28223 42.1212 8.48229 43.0058 8.88641C43.8864 9.29054 44.691 9.87872 45.4195 10.655L42.1492 13.884C41.889 13.5999 41.5848 13.3798 41.2325 13.2237C40.8803 13.0677 40.448 12.9917 39.9276 12.9917C38.9949 12.9917 38.2744 13.2438 37.7661 13.7519C37.2617 14.2561 37.0055 14.9763 37.0055 15.9126V36.847H31.8659H31.8739Z" fill="white"/>
<path d="M72.0188 36.9631C70.3857 36.9631 68.9166 36.591 67.6117 35.8388C66.3027 35.0906 65.27 34.0743 64.5095 32.7899C63.7489 31.5055 63.3687 30.057 63.3687 28.4485C63.3687 26.84 63.7489 25.4396 64.5095 24.1752C65.27 22.9148 66.3027 21.9065 67.6117 21.1583C68.9206 20.4101 70.3897 20.0339 72.0188 20.0339C73.648 20.0339 75.1531 20.402 76.462 21.1383C77.7709 21.8745 78.8077 22.8828 79.5802 24.1552C80.3528 25.4276 80.737 26.86 80.737 28.4445C80.737 30.029 80.3568 31.4735 79.5962 32.7699C78.8357 34.0663 77.7949 35.0866 76.478 35.8348C75.1571 36.583 73.672 36.9591 72.0188 36.9591V36.9631ZM72.0188 32.8379C72.8474 32.8379 73.5799 32.6498 74.2164 32.2697C74.8528 31.8896 75.3452 31.3774 75.6934 30.7292C76.0417 30.081 76.2138 29.3328 76.2138 28.4845C76.2138 27.6363 76.0297 26.888 75.6614 26.2398C75.2932 25.5916 74.8008 25.0835 74.1844 24.7154C73.5679 24.3473 72.8474 24.1632 72.0228 24.1632C71.1982 24.1632 70.5017 24.3473 69.8773 24.7154C69.2529 25.0835 68.7645 25.5916 68.4203 26.2398C68.072 26.888 67.8999 27.6363 67.8999 28.4845C67.8999 29.3328 68.072 30.081 68.4203 30.7292C68.7685 31.3774 69.2529 31.8896 69.8773 32.2697C70.5017 32.6498 71.2182 32.8379 72.0228 32.8379H72.0188Z" fill="white"/>
<path d="M91.0965 36.9631C89.4633 36.9631 87.9942 36.591 86.6893 35.8388C85.3804 35.0906 84.3476 34.0743 83.5871 32.7899C82.8266 31.5055 82.4463 30.057 82.4463 28.4485C82.4463 26.84 82.8266 25.4396 83.5871 24.1752C84.3476 22.9148 85.3804 21.9065 86.6893 21.1583C87.9983 20.4101 89.4673 20.0339 91.0965 20.0339C92.7256 20.0339 94.2307 20.402 95.5396 21.1383C96.8486 21.8745 97.8853 22.8828 98.6579 24.1552C99.4304 25.4276 99.8147 26.86 99.8147 28.4445C99.8147 30.029 99.4344 31.4735 98.6739 32.7699C97.9133 34.0663 96.8726 35.0866 95.5556 35.8348C94.2347 36.583 92.7496 36.9591 91.0965 36.9591V36.9631ZM91.0965 32.8379C91.925 32.8379 92.6576 32.6498 93.294 32.2697C93.9305 31.8896 94.4228 31.3774 94.7711 30.7292C95.1193 30.081 95.2914 29.3328 95.2914 28.4845C95.2914 27.6363 95.1073 26.888 94.7391 26.2398C94.3708 25.5916 93.8784 25.0835 93.262 24.7154C92.6456 24.3473 91.925 24.1632 91.1005 24.1632C90.2759 24.1632 89.5794 24.3473 88.9549 24.7154C88.3305 25.0835 87.8421 25.5916 87.4979 26.2398C87.1496 26.888 86.9775 27.6363 86.9775 28.4845C86.9775 29.3328 87.1496 30.081 87.4979 30.7292C87.8461 31.3774 88.3305 31.8896 88.9549 32.2697C89.5794 32.6498 90.2959 32.8379 91.1005 32.8379H91.0965Z" fill="white"/>
<path d="M12.5642 17.9693L7.84488 16.2007L6.09563 15.5445L2.48506 14.1921C1.62845 13.872 1.004 13.0678 1 12.1555C1 12.1515 1 12.1435 1 12.1395C1 10.7831 1.74853 9.47868 3.04146 8.83048L17.9641 1.38819C19.7894 0.479912 22.003 1.22014 22.9116 3.0487C23.1798 3.57686 23.3039 4.14104 23.3039 4.69321C23.3039 6.04963 22.5514 7.35403 21.2584 7.99822L6.33581 15.4325C6.25575 15.4725 6.17569 15.5045 6.09563 15.5405" fill="url(#paint0_linear_14_11562)"/>
<path d="M12.5642 17.9693L7.84488 16.2007L6.09563 15.5445L2.48506 14.1921C1.62845 13.872 1.004 13.0678 1 12.1555C1 12.1515 1 12.1435 1 12.1395C1 10.7831 1.74853 9.47868 3.04146 8.83048L17.9641 1.38819C19.7894 0.479912 22.003 1.22014 22.9116 3.0487C23.1798 3.57686 23.3039 4.14104 23.3039 4.69321C23.3039 6.04963 22.5514 7.35403 21.2584 7.99822L6.33581 15.4325C6.25575 15.4725 6.17569 15.5045 6.09563 15.5405" stroke="url(#paint1_linear_14_11562)" stroke-width="2" stroke-miterlimit="10"/>
<path d="M9.06976 13.7119L13.7891 15.4805L15.5384 16.1367L19.1489 17.4891C20.0056 17.8092 20.63 18.6134 20.634 19.5257C20.634 19.5297 20.634 19.5377 20.634 19.5417C20.634 20.8981 19.8855 22.2025 18.5925 22.8507L6.33981 28.9566C4.51451 29.8649 2.30093 29.1247 1.39228 27.2961C1.12409 26.7679 1 26.2038 1 25.6516C1 24.2952 1.75254 22.9908 3.04546 22.3466L15.2982 16.2407C15.3783 16.2007 15.4583 16.1687 15.5384 16.1327" fill="url(#paint2_linear_14_11562)"/>
<path d="M9.06976 13.7119L13.7891 15.4805L15.5384 16.1367L19.1489 17.4891C20.0056 17.8092 20.63 18.6134 20.634 19.5257C20.634 19.5297 20.634 19.5377 20.634 19.5417C20.634 20.8981 19.8855 22.2025 18.5925 22.8507L6.33981 28.9566C4.51451 29.8649 2.30093 29.1247 1.39228 27.2961C1.12409 26.7679 1 26.2038 1 25.6516C1 24.2952 1.75254 22.9908 3.04546 22.3466L15.2982 16.2407C15.3783 16.2007 15.4583 16.1687 15.5384 16.1327" stroke="url(#paint3_linear_14_11562)" stroke-width="2" stroke-miterlimit="10"/>
<path d="M6.00347 28.3005L8.92956 29.5329L10.0143 29.9931L12.2519 30.9373C12.7843 31.1614 13.1686 31.7216 13.1726 32.3578C13.1726 32.3578 13.1726 32.3658 13.1726 32.3698C13.1726 33.3141 12.7083 34.2264 11.9077 34.6745L4.31427 38.9318C3.18146 39.564 1.80848 39.0478 1.24808 37.7755C1.08396 37.4073 1.00391 37.0152 1.00391 36.6311C1.00391 35.6868 1.46824 34.7745 2.27281 34.3304L9.86623 30.0731C9.91426 30.0451 9.9663 30.0211 10.0143 29.9971" fill="url(#paint4_linear_14_11562)"/>
<path d="M6.00347 28.3005L8.92956 29.5329L10.0143 29.9931L12.2519 30.9373C12.7843 31.1614 13.1686 31.7216 13.1726 32.3578C13.1726 32.3578 13.1726 32.3658 13.1726 32.3698C13.1726 33.3141 12.7083 34.2264 11.9077 34.6745L4.31427 38.9318C3.18146 39.564 1.80848 39.0478 1.24808 37.7755C1.08396 37.4073 1.00391 37.0152 1.00391 36.6311C1.00391 35.6868 1.46824 34.7745 2.27281 34.3304L9.86623 30.0731C9.91426 30.0451 9.9663 30.0211 10.0143 29.9971" stroke="url(#paint5_linear_14_11562)" stroke-width="2" stroke-miterlimit="10"/>
<defs>
<linearGradient id="paint0_linear_14_11562" x1="1" y1="9.48268" x2="23.3039" y2="9.48268" gradientUnits="userSpaceOnUse">
<stop stop-color="#00FFDA"/>
<stop offset="1" stop-color="#00FF8B"/>
</linearGradient>
<linearGradient id="paint1_linear_14_11562" x1="0.599715" y1="9.47068" x2="23.7042" y2="9.47068" gradientUnits="userSpaceOnUse">
<stop stop-color="#00FFDA"/>
<stop offset="1" stop-color="#00FF8B"/>
</linearGradient>
<linearGradient id="paint2_linear_14_11562" x1="0.599715" y1="21.5303" x2="20.634" y2="21.5303" gradientUnits="userSpaceOnUse">
<stop stop-color="#00FFDA"/>
<stop offset="1" stop-color="#00FF8B"/>
</linearGradient>
<linearGradient id="paint3_linear_14_11562" x1="0.599715" y1="21.5423" x2="21.0343" y2="21.5423" gradientUnits="userSpaceOnUse">
<stop stop-color="#00FFDA"/>
<stop offset="1" stop-color="#00FF8B"/>
</linearGradient>
<linearGradient id="paint4_linear_14_11562" x1="0.999903" y1="33.7502" x2="13.1686" y2="33.7502" gradientUnits="userSpaceOnUse">
<stop stop-color="#00FFDA"/>
<stop offset="1" stop-color="#00FF8B"/>
</linearGradient>
<linearGradient id="paint5_linear_14_11562" x1="0.599618" y1="33.7662" x2="13.5689" y2="33.7662" gradientUnits="userSpaceOnUse">
<stop stop-color="#00FFDA"/>
<stop offset="1" stop-color="#00FF8B"/>
</linearGradient>
</defs>
</svg>
