<svg width="60" height="60" viewBox="0 0 60 60" fill="none" xmlns="http://www.w3.org/2000/svg">
<path d="M36.9232 53.0769C35.0975 53.0769 33.3128 52.5355 31.7948 51.5212C30.2768 50.5069 29.0937 49.0653 28.395 47.3786C27.6964 45.6919 27.5136 43.8359 27.8698 42.0453C28.2259 40.2547 29.1051 38.6099 30.396 37.319C31.687 36.028 33.3317 35.1489 35.1223 34.7927C36.9129 34.4366 38.7689 34.6194 40.4556 35.318C42.1423 36.0167 43.584 37.1998 44.5983 38.7178C45.6126 40.2358 46.1539 42.0205 46.1539 43.8461C46.1509 46.2933 45.1774 48.6395 43.4469 50.3699C41.7165 52.1003 39.3704 53.0738 36.9232 53.0769ZM36.9232 39.2307C36.0103 39.2307 35.118 39.5014 34.359 40.0086C33.6 40.5157 33.0084 41.2365 32.6591 42.0799C32.3098 42.9232 32.2184 43.8513 32.3965 44.7465C32.5745 45.6418 33.0141 46.4642 33.6596 47.1097C34.3051 47.7552 35.1274 48.1947 36.0227 48.3728C36.918 48.5509 37.846 48.4595 38.6894 48.1102C39.5327 47.7609 40.2536 47.1693 40.7607 46.4103C41.2679 45.6513 41.5385 44.759 41.5385 43.8461C41.5385 42.6221 41.0523 41.4481 40.1867 40.5826C39.3212 39.717 38.1472 39.2307 36.9232 39.2307Z" fill="white"/>
<path d="M55.3846 60H18.4615C17.2375 60 16.0635 59.5137 15.198 58.6482C14.3324 57.7826 13.8462 56.6087 13.8462 55.3846V34.6154C13.8462 33.3913 14.3324 32.2174 15.198 31.3518C16.0635 30.4863 17.2375 30 18.4615 30H26.0308L27.2838 26.2338C27.5901 25.3144 28.1779 24.5147 28.9641 23.9481C29.7502 23.3815 30.6948 23.0767 31.6638 23.0769H42.1823C43.1514 23.0767 44.0959 23.3815 44.8821 23.9481C45.6682 24.5147 46.2561 25.3144 46.5623 26.2338L47.8154 30H55.3846C56.6087 30 57.7826 30.4863 58.6482 31.3518C59.5137 32.2174 60 33.3913 60 34.6154V55.3846C60 56.6087 59.5137 57.7826 58.6482 58.6482C57.7826 59.5137 56.6087 60 55.3846 60ZM18.4615 55.3846H55.3846V34.6154H44.4923L42.1846 27.6923H31.6615L29.3538 34.6154H18.4615V55.3846ZM55.3846 18.4615H60V23.0769H55.3846V18.4615ZM55.3846 9.23077H60V13.8462H55.3846V9.23077ZM55.3846 0H60V4.61538H55.3846V0ZM46.1538 0H50.7692V4.61538H46.1538V0ZM36.9231 0H41.5385V4.61538H36.9231V0ZM27.6923 0H32.3077V4.61538H27.6923V0ZM18.4615 0H23.0769V4.61538H18.4615V0ZM9.23077 0H13.8462V4.61538H9.23077V0ZM0 0H4.61538V4.61538H0V0ZM0 9.23077H4.61538V13.8462H0V9.23077ZM0 18.4615H4.61538V23.0769H0V18.4615ZM0 27.6923H4.61538V32.3077H0V27.6923ZM0 36.9231H4.61538V41.5385H0V36.9231ZM0 46.1538H4.61538V50.7692H0V46.1538ZM0 55.3846H4.61538V60H0V55.3846Z" fill="white"/>
</svg>
