<svg width="42" height="30" viewBox="0 0 42 30" fill="none" xmlns="http://www.w3.org/2000/svg">
<path d="M16 15H3.5C2.83696 15 2.20107 14.7318 1.73223 14.2545C1.26339 13.7771 1 13.1296 1 12.4545V3.54545C1 2.87036 1.26339 2.22291 1.73223 1.74555C2.20107 1.26818 2.83696 1 3.5 1H13.5C14.163 1 14.7989 1.26818 15.2678 1.74555C15.7366 2.22291 16 2.87036 16 3.54545V15ZM16 15C16 21.3636 13.5 25.1818 6 29M41 15H28.5C27.837 15 27.2011 14.7318 26.7322 14.2545C26.2634 13.7771 26 13.1296 26 12.4545V3.54545C26 2.87036 26.2634 2.22291 26.7322 1.74555C27.2011 1.26818 27.837 1 28.5 1H38.5C39.163 1 39.7989 1.26818 40.2678 1.74555C40.7366 2.22291 41 2.87036 41 3.54545V15ZM41 15C41 21.3636 38.5 25.1818 31 29" stroke="#9D86FF" stroke-width="2" stroke-linecap="round"/>
</svg>
