<svg width="56" height="60" viewBox="0 0 56 60" fill="none" xmlns="http://www.w3.org/2000/svg">
<path d="M55.4227 41.7858C55.7057 42.277 55.7826 42.8602 55.6365 43.408C55.4904 43.9557 55.1333 44.4232 54.6432 44.7081L28.9288 59.7083C28.6011 59.8993 28.2286 60 27.8493 60C27.47 60 27.0975 59.8993 26.7698 59.7083L1.05536 44.7081C0.572399 44.4179 0.223175 43.9492 0.0833044 43.4033C-0.0565662 42.8575 0.0241724 42.2786 0.308039 41.7918C0.591906 41.3051 1.05606 40.9498 1.6 40.8027C2.14394 40.6557 2.7239 40.7289 3.21431 41.0063L27.8573 55.377L52.5004 41.0063C52.9915 40.7233 53.5748 40.6464 54.1225 40.7925C54.6702 40.9386 55.1378 41.2958 55.4227 41.7858ZM52.5004 28.1491L27.8573 42.5197L3.21431 28.1491C2.72639 27.9062 2.16423 27.8583 1.64226 28.0152C1.12028 28.1721 0.677727 28.5221 0.404662 28.9938C0.131598 29.4655 0.0485508 30.0236 0.172423 30.5544C0.296296 31.0851 0.617778 31.5488 1.07144 31.8509L26.7859 46.851C27.1136 47.0421 27.4861 47.1428 27.8654 47.1428C28.2447 47.1428 28.6172 47.0421 28.9448 46.851L54.6593 31.8509C54.9063 31.7112 55.1231 31.5238 55.297 31.2996C55.471 31.0754 55.5987 30.8189 55.6728 30.545C55.7468 30.271 55.7657 29.9851 55.7283 29.7038C55.691 29.4225 55.5981 29.1514 55.4552 28.9063C55.3122 28.6612 55.122 28.4469 54.8955 28.2758C54.6691 28.1048 54.4109 27.9805 54.1361 27.91C53.8612 27.8396 53.575 27.8245 53.2942 27.8655C53.0134 27.9065 52.7436 28.0029 52.5004 28.1491ZM0 17.1428C0.000854581 16.7674 0.100274 16.3989 0.288307 16.0741C0.476341 15.7493 0.746393 15.4795 1.07144 15.2919L26.7859 0.291753C27.1136 0.100679 27.4861 0 27.8654 0C28.2447 0 28.6172 0.100679 28.9448 0.291753L54.6593 15.2919C54.9828 15.4806 55.2512 15.7508 55.4377 16.0755C55.6242 16.4003 55.7224 16.7683 55.7224 17.1428C55.7224 17.5173 55.6242 17.8852 55.4377 18.21C55.2512 18.5347 54.9828 18.805 54.6593 18.9937L28.9448 33.9938C28.6172 34.1849 28.2447 34.2855 27.8654 34.2855C27.4861 34.2855 27.1136 34.1849 26.7859 33.9938L1.07144 18.9937C0.746393 18.806 0.476341 18.5363 0.288307 18.2114C0.100274 17.8866 0.000854581 17.5181 0 17.1428ZM6.39647 17.1428L27.8573 29.6625L49.3182 17.1428L27.8573 4.62303L6.39647 17.1428Z" fill="white"/>
</svg>
