<svg width="60" height="60" viewBox="0 0 60 60" fill="none" xmlns="http://www.w3.org/2000/svg">
<path d="M22.5166 1.06908e-05C27.3427 -0.00160727 32.0415 1.54962 35.9187 4.42458C39.796 7.29953 42.6462 11.3458 44.0484 15.9656C47.7654 17.0961 51.1263 19.1703 53.8039 21.9864C56.4815 24.8024 58.3845 28.2641 59.3274 32.0344C60.2703 35.8048 60.2211 39.7551 59.1845 43.5008C58.1479 47.2464 56.1593 50.6596 53.4123 53.408C50.6654 56.1563 47.2538 58.1461 43.5098 59.1835C39.7657 60.2209 35.817 60.2706 32.0481 59.3277C28.2792 58.3848 24.8186 56.4815 22.0035 53.8031C19.1883 51.1247 17.1145 47.7626 15.9841 44.0442C10.8175 42.4814 6.38486 39.1121 3.49518 34.5513C0.605494 29.9904 -0.548554 24.5422 0.24365 19.2009C1.03585 13.8595 3.72149 8.9812 7.81041 5.45626C11.8993 1.93131 17.1189 -0.00525021 22.5166 1.06908e-05ZM44.9691 21.1175L44.9991 21.7776L45.0111 22.5037C45.0112 25.5757 44.3826 28.6153 43.1639 31.4351C41.9453 34.2548 40.1624 36.7951 37.9252 38.8995C35.688 41.0038 33.0437 42.6276 30.1554 43.6708C27.2671 44.714 24.1959 45.1546 21.1309 44.9654C22.336 47.6113 24.1638 49.9259 26.4579 51.7112C28.7521 53.4964 31.4444 54.6992 34.3045 55.2166C37.1646 55.734 40.1074 55.5507 42.8813 54.6823C45.6551 53.814 48.1774 52.2864 50.2325 50.2302C52.2876 48.174 53.8142 45.6505 54.6819 42.8754C55.5496 40.1003 55.7325 37.1563 55.2149 34.2951C54.6973 31.4339 53.4947 28.7407 51.7099 26.4458C49.9251 24.151 47.6142 22.3227 44.9691 21.1175ZM22.5166 4.50075C18.4038 4.49735 14.4139 5.9034 11.2113 8.48477C8.00869 11.0662 5.78655 14.6671 4.91487 18.6881C4.04319 22.709 4.57457 26.9074 6.42054 30.5841C8.2665 34.2608 11.3157 37.194 15.0603 38.8954L15.0304 38.2353L15.0184 37.5061C15.0183 34.4341 15.6469 31.3946 16.8656 28.5748C18.0842 25.755 19.8671 23.2147 22.1043 21.1104C24.3415 19.0061 26.9858 17.3823 29.8741 16.339C32.7624 15.2958 35.8336 14.8552 38.8986 15.0445C37.4674 11.8995 35.1618 9.23305 32.2569 7.36343C29.352 5.4938 25.9707 4.50003 22.5166 4.50075Z" fill="white"/>
</svg>
