<svg width="60" height="60" viewBox="0 0 60 60" fill="none" xmlns="http://www.w3.org/2000/svg">
<path d="M30 0C13.47 0 0 13.47 0 30C0 46.53 13.47 60 30 60C46.53 60 60 46.53 60 30C60 13.47 46.53 0 30 0ZM3.03 30C3.03 26.1 3.87 22.38 5.37 19.02L18.24 54.27C9.24 49.89 3.03 40.68 3.03 30ZM30 56.97C27.36 56.97 24.81 56.58 22.38 55.86L30.48 32.34L38.76 55.05C38.82 55.17 38.88 55.32 38.94 55.41C36.15 56.43 33.15 56.97 30 56.97ZM33.72 17.34C35.34 17.25 36.81 17.07 36.81 17.07C38.25 16.89 38.1 14.76 36.63 14.85C36.63 14.85 32.25 15.18 29.43 15.18C26.79 15.18 22.32 14.85 22.32 14.85C20.88 14.79 20.7 17.01 22.17 17.1C22.17 17.1 23.55 17.28 24.99 17.37L29.19 28.89L23.28 46.59L13.47 17.34C15.09 17.28 16.56 17.1 16.56 17.1C18 16.92 17.85 14.79 16.38 14.88C16.38 14.88 12 15.21 9.18 15.21C8.67 15.21 8.07 15.21 7.44 15.18C12.3 7.86 20.58 3.03 30 3.03C37.02 3.03 43.41 5.7 48.21 10.11C48.09 10.11 47.97 10.08 47.85 10.08C45.21 10.08 43.32 12.39 43.32 14.88C43.32 17.1 44.61 18.99 45.96 21.21C46.98 23.01 48.18 25.32 48.18 28.65C48.18 30.96 47.28 33.63 46.14 37.38L43.44 46.38L33.72 17.34ZM53.67 17.07C57.0381 23.2372 57.8661 30.4755 55.9779 37.244C54.0896 44.0126 49.6342 49.7769 43.56 53.31L51.81 29.49C53.34 25.65 53.85 22.56 53.85 19.83C53.85 18.84 53.79 17.91 53.67 17.07Z" fill="white"/>
</svg>
